<?xml version="1.0" encoding="UTF-8"?>
<svg id="Layer_1" xmlns="http://www.w3.org/2000/svg" version="1.1" viewBox="0 0 595.3 841.9">
  <!-- Generator: Adobe Illustrator 29.6.0, SVG Export Plug-In . SVG Version: 2.1.1 Build 207)  -->
  <defs>
    <style>
      .st0 {
        fill: #231f20;
      }
    </style>
  </defs>
  <path class="st0" d="M328.4,417.6l-26.6-25.4c-2.1-2-5.4-1.9-7.4.2-2,2.1-1.9,5.4.2,7.4l16.6,15.9h-41.4c-2.9,0-5.2,2.3-5.2,5.2s2.3,5.2,5.2,5.2h42.2l-17.3,15.8c-2.1,1.9-2.3,5.2-.3,7.3,1,1.1,2.4,1.7,3.8,1.7s2.5-.4,3.5-1.4l26.6-24.3c1.1-1,1.7-2.3,1.7-3.8,0-1.4-.6-2.8-1.6-3.8Z"/>
</svg>