<?xml version="1.0" encoding="UTF-8"?>
<svg id="Layer_1" xmlns="http://www.w3.org/2000/svg" version="1.1" viewBox="0 0 595.3 841.9">
  <!-- Generator: Adobe Illustrator 29.6.0, SVG Export Plug-In . SVG Version: 2.1.1 Build 207)  -->
  <defs>
    <style>
      .st0 {
        fill: #fff;
      }
    </style>
  </defs>
  <path class="st0" d="M313.8,402.7c-1.4.5,2.3,2.4,2.6,2.5,8.2,4.8,17.9,8,26.4,12.5s8.4,4.4,12,7.5l-.3,1.2-17.5-2.1c-.5.8,0,1.1.7,1.5,4.5,2.4,9.6,3.6,13.2,7.6-.1.7-.2,1-.8,1.3-2.5,1.1-20.1-5.8-20.8-3.6,2.6,2.7,6.9,3.1,9.8,5.3v1.2c0,0-4.9,2.2-4.9,2.2-.4,1.1,8.2,4.2,8.4,5.9s-1.3.5-1.7.5c-5-.3-10.7-2.4-15.6-2.3s-1.8,0-2.6.7c-.4.8,1,1.8,1.4,2.3,1.8,1.7,7,4.3,7.9,6.2.3.6.4.6-.3.8-11.9-1.5-13.7-3.7-25.7-4.6,0,1,.4,1.1,1.1,1.6,4.1,2.5.8,1.4,5.1,3.7s10.3,5.2,10.1,7.1c-1.5,1.4-5.3.4-7.2,0-17.9-3.2-18.7,1-36.3-3.7-10.1-2.7-8.4-2.6-15.6-5.1-8.1-2.8-15.5-5.2-20.8-12.4-.8-7.9-3-15.8-.9-23.8,8.1-11.8,4.6-37.9,24-37.2,10.4.3,12,2.1,22.6,5.3,34.6,10.6,22.5,5.3,54.2,22.8,1.1.6,8,4.4,7.7,5.3-1.8.6-4.6,0-6.5-.6-10-2.5-19.3-7.8-29.5-9.6Z"/>
</svg>